<svg xmlns="http://www.w3.org/2000/svg" id="set_data_variable" width="36" height="36" data-name="set data variable" viewBox="0 0 36 36">
    <defs>
        <style>
            .cls-1{fill:none}
        </style>
    </defs>
    <path id="Rectangle_1046" d="M0 0h36v36H0z" class="cls-1" data-name="Rectangle 1046"/>
    <path id="Path_877" d="M26.5 30h-17a.5.5 0 0 1-.5-.5v-15a.5.5 0 0 1 .5-.5H17V5.5a.5.5 0 0 1 .5-.5h9a.5.5 0 0 1 .5.5v24a.5.5 0 0 1-.5.5zM10 29h16V6h-8v8.5a.5.5 0 0 1-.5.5H10z" data-name="Path 877"/>
    <path id="Path_878" d="M17.5 15h-8a.51.51 0 0 1-.5-.3.49.49 0 0 1 .1-.54L13 10.1l4.15-4.92a.5.5 0 0 1 .85.32v9a.5.5 0 0 1-.5.5zm-6.84-1H17V6.87l-3.28 3.9z" data-name="Path 878"/>
    <path id="Path_879" d="M18.5 25a.54.54 0 0 1-.22-.05.51.51 0 0 1-.23-.67l3-6a.5.5 0 0 1 .9.44l-3 6a.5.5 0 0 1-.45.28z" data-name="Path 879"/>
    <path id="Path_880" d="M21.5 25a.5.5 0 0 1-.45-.28l-3-6a.5.5 0 0 1 .9-.44l3 6a.51.51 0 0 1-.23.67.54.54 0 0 1-.22.05z" data-name="Path 880"/>
    <path id="Rectangle_1047" d="M0 0h1v7.81H0z" data-name="Rectangle 1047" transform="rotate(-89.92 14.014 7.992)"/>
    <path id="Path_881" d="M11.5 25a.52.52 0 0 1-.29-.09.51.51 0 0 1-.12-.7l1.91-2.7-2-2.71a.5.5 0 0 1 .12-.7.49.49 0 0 1 .69.12l2.37 3.29-2.3 3.28a.5.5 0 0 1-.38.21z" data-name="Path 881"/>
    <path id="Path_882" d="M16.5 26a.5.5 0 0 1-.45-.28A10.8 10.8 0 0 1 15 21.5a10.8 10.8 0 0 1 1.05-4.22.5.5 0 0 1 .9.44A9.93 9.93 0 0 0 16 21.5a9.93 9.93 0 0 0 1 3.78.51.51 0 0 1-.23.67.54.54 0 0 1-.27.05z" data-name="Path 882"/>
    <path id="Path_883" d="M23.5 26a.54.54 0 0 1-.22-.05.51.51 0 0 1-.23-.67A9.93 9.93 0 0 0 24 21.5a9.93 9.93 0 0 0-.95-3.78.5.5 0 0 1 .9-.44A10.8 10.8 0 0 1 25 21.5a10.8 10.8 0 0 1-1 4.22.5.5 0 0 1-.5.28z" data-name="Path 883"/>
</svg>
