<svg xmlns="http://www.w3.org/2000/svg" id="toast_1" width="36" height="36" viewBox="0 0 36 36">
    <defs>
        <style>
            .cls-1{fill:none}.cls-2{fill:#b9bcc1}
        </style>
    </defs>
    <path id="Rectangle_1056" d="M0 0h36v36H0z" class="cls-1" data-name="Rectangle 1056"/>
    <path id="Rectangle_1057" d="M0 0h6v1H0z" data-name="Rectangle 1057" transform="translate(22 16)"/>
    <path id="Rectangle_1058" d="M0 0h5v1H0z" data-name="Rectangle 1058" transform="translate(8 13)"/>
    <path id="Rectangle_1059" d="M0 0h13v1H0z" data-name="Rectangle 1059" transform="translate(15 13)"/>
    <path id="Rectangle_1060" d="M0 0h12v1H0z" data-name="Rectangle 1060" transform="translate(8 16)"/>
    <path id="Rectangle_1061" d="M0 0h6v1H0z" data-name="Rectangle 1061" transform="translate(22 22)"/>
    <path id="Rectangle_1062" d="M0 0h12v1H0z" data-name="Rectangle 1062" transform="translate(8 22)"/>
    <path id="Rectangle_1063" d="M0 0h9v1H0z" data-name="Rectangle 1063" transform="translate(8 19)"/>
    <path id="Rectangle_1064" d="M0 0h9v1H0z" data-name="Rectangle 1064" transform="translate(19 19)"/>
    <path id="Path_894" d="M29.56 26H6.44A2.44 2.44 0 0 1 4 23.56V12.44A2.44 2.44 0 0 1 6.44 10h23.12A2.44 2.44 0 0 1 32 12.44v11.12A2.44 2.44 0 0 1 29.56 26zM6.44 11A1.43 1.43 0 0 0 5 12.44v11.12A1.43 1.43 0 0 0 6.44 25h23.12A1.43 1.43 0 0 0 31 23.56V12.44A1.43 1.43 0 0 0 29.56 11z" class="cls-2" data-name="Path 894"/>
</svg>
