<svg xmlns="http://www.w3.org/2000/svg" id="Group_707" width="36" height="36" data-name="Group 707" viewBox="0 0 36 36">
    <defs>
        <style>
            .cls-1{fill:none}
        </style>
    </defs>
    <path id="Rectangle_969" d="M0 0h36v36H0z" class="cls-1" data-name="Rectangle 969"/>
    <path id="Rectangle_970" d="M0 0h1v4H0z" data-name="Rectangle 970" transform="translate(18 7)"/>
    <path id="Rectangle_971" d="M0 0h1v4H0z" data-name="Rectangle 971" transform="translate(18 26)"/>
    <path id="Rectangle_972" d="M0 0h1v4H0z" data-name="Rectangle 972" transform="rotate(-45 17.349 -6.725)"/>
    <path id="Rectangle_973" d="M0 0h1v4H0z" data-name="Rectangle 973" transform="rotate(-45 40.89 -16.473)"/>
    <path id="Rectangle_974" d="M0 0h4v1H0z" data-name="Rectangle 974" transform="translate(7 18)"/>
    <path id="Rectangle_975" d="M0 0h4v1H0z" data-name="Rectangle 975" transform="translate(26 18)"/>
    <path id="Rectangle_976" d="M0 0h4v1H0z" data-name="Rectangle 976" transform="rotate(-45 36.551 1.227)"/>
    <path id="Rectangle_977" d="M0 0h4v1H0z" data-name="Rectangle 977" transform="rotate(-45 26.8 -22.312)"/>
</svg>
