<svg xmlns="http://www.w3.org/2000/svg" width="36" height="36" viewBox="0 0 36 36">
    <defs>
        <style>
            .cls-1{fill:none}
        </style>
    </defs>
    <g id="Group_655" data-name="Group 655" transform="translate(-138)">
        <path id="Rectangle_915" d="M0 0h36v36H0z" class="cls-1" data-name="Rectangle 915" transform="translate(138)"/>
        <g id="Group_653" data-name="Group 653">
            <path id="Path_740" d="M156 14.5a.5.5 0 0 1-.5.5H148v14h16V6h-8z" class="cls-1" data-name="Path 740"/>
            <path id="Path_741" d="M155 6.869l-3.284 3.9L148.66 14H155z" class="cls-1" data-name="Path 741"/>
            <path id="Path_742" d="M164.5 5h-9a.469.469 0 0 0-.092.019.359.359 0 0 0-.057.011.485.485 0 0 0-.22.139s-.01 0-.014.009L150.97 10.1l-3.823 4.045-.009.01s0 .011-.008.015a.494.494 0 0 0-.1.208c-.005.022-.01.042-.013.064a.5.5 0 0 0-.017.058v15a.5.5 0 0 0 .5.5h17a.5.5 0 0 0 .5-.5v-24a.5.5 0 0 0-.5-.5zm-12.784 5.767L155 6.869V14h-6.34zM164 29h-16V15h7.5a.5.5 0 0 0 .5-.5V6h8z" data-name="Path 742"/>
        </g>
        <g id="Group_654" data-name="Group 654">
            <path id="Path_743" d="M151.03 20.314l2.027-.616-1.411-1.411z" class="cls-1" data-name="Path 743"/>
            <path id="Path_744" d="M160.793 25.609l.5-1.866-1.866.5z" class="cls-1" data-name="Path 744"/>
            <path id="Path_745" d="M162.354 22.683a.5.5 0 0 0-.484-.129l-3.539.948a.5.5 0 0 0-.224.836l1.118 1.117a4.753 4.753 0 0 1-7.206-1.546.5.5 0 1 0-.889.459 5.749 5.749 0 0 0 8.8 1.8l.764.765a.5.5 0 0 0 .354.146.484.484 0 0 0 .13-.017.5.5 0 0 0 .353-.353l.948-3.539a.5.5 0 0 0-.125-.487zm-1.561 2.926l-1.366-1.365 1.866-.5z" data-name="Path 745"/>
            <path id="Path_746" d="M154.486 20.056a.5.5 0 0 0-.132-.475l-1.125-1.125a4.735 4.735 0 0 1 3.044-1.122 4.8 4.8 0 0 1 4.51 3.173.5.5 0 1 0 .942-.337 5.8 5.8 0 0 0-5.452-3.836 5.728 5.728 0 0 0-3.751 1.415l-.758-.758a.5.5 0 0 0-.832.208l-1.13 3.72a.5.5 0 0 0 .478.645.487.487 0 0 0 .146-.021l3.72-1.13a.5.5 0 0 0 .34-.357zm-3.456.258l.616-2.027 1.412 1.411z" data-name="Path 746"/>
        </g>
    </g>
</svg>
