<?xml version="1.0" encoding="utf-8"?>
<!-- Generator: Adobe Illustrator 19.2.1, SVG Export Plug-In . SVG Version: 6.00 Build 0)  -->
<svg version="1.1" id="Layer_1" xmlns="http://www.w3.org/2000/svg" xmlns:xlink="http://www.w3.org/1999/xlink" x="0px" y="0px"
	 viewBox="0 0 250 250" enable-background="new 0 0 250 250" xml:space="preserve">
<text transform="matrix(1 0 0 1 65.8086 322.4163)" fill="#FFFFFF" font-family="'MyriadPro-Regular'" font-size="45.4557px">Default</text>
<g>
	<path d="M158.9,165.8c0,6.2-2.7,12.4-8.5,17c-3,2.3-7.2,5.4-7.1,7.5h0l0,0.2l0,0c0.1,0.9,0.8,2.1,3.1,3.6c1.5,0.9,3.5,1.4,5.4,1.7
		c3.1,0.6,6.3,0.8,9.5,0.8c12.4,0,25.4-3.8,36.9-7.6c-3-10.2-5.4-20.7-7.1-31.2c-1.1-6.7-2-13.5-2-20.4c0-1.3,0-2.6,0.1-3.9
		c0.3-5.1,1-11.4,5.8-15.2c1.4-1.1,2.7-1.6,4-1.6c2.7,0.1,4.4,2.3,5.8,4.6c1.4,2.3,2.5,4.9,3.8,6.2c3.1,3.3,6.6,4.4,11.1,4.7
		c1,0.1,2,0.1,3,0.1c0,0,0.1,0,0.1,0c10.9,0,21.3-4.3,24.3-15.5c0.7-2.4,1-4.8,1-7.3c0-6.6-2.4-13.2-7-18.2
		c-5-5.3-11.4-8.2-17.5-8.2c-5.6,0-11.1,2.4-15.4,7.7c-2.4,2.8-5,7.7-9.2,7.9c-2,0-3.9-1.4-5.5-4.1c-1.2-1.9-1.6-4.2-2-6.1
		c-0.6-3.2-0.9-6.6-0.9-9.9c0-12.8,3.9-26,7.8-37.6c-10.2-3-20.7-5.4-31.1-7.1c-6.6-1.1-13.3-2-20-2c-1.2,0-2.5,0-3.7,0.1
		c-5.1,0.3-10.7,1.1-13.6,5c-0.9,1.1-1.2,2-1.2,2.7l0,0c-0.1,1.3,1.4,2.6,3.6,3.9c2.2,1.3,4.8,2.5,6.5,4.1c3.8,3.5,5,7.8,5.4,12.5
		c0.1,1.1,0.1,2.2,0.1,3.3l0,0v0c0,11.3-4.6,22.9-17,26.3c-2.6,0.7-5.2,1-7.8,1c-7.1,0-14.2-2.6-19.6-7.6C94.2,78.2,91,71.4,91,64.6
		c0-0.1,0-0.1,0-0.1c0,0,0,0,0,0h0c0,0,0,0,0,0c0-6.2,2.7-12.4,8.5-17c3-2.3,7.2-5.4,7.1-7.5l0,0c0-0.1,0-0.1,0-0.1
		c0-0.9-0.7-2.2-3.1-3.7c-1.5-0.9-3.5-1.4-5.4-1.7c-3.1-0.6-6.3-0.8-9.5-0.8c-12.4,0-25.4,3.8-36.9,7.6l0,0l0,0
		c3,10.3,5.4,20.9,7.2,31.5c1.1,6.7,2,13.5,2,20.4c0,1.3,0,2.6-0.1,3.8c-0.3,5.1-1,11.4-5.8,15.2c-1.4,1.1-2.7,1.6-4,1.6
		c-2.7-0.1-4.4-2.3-5.8-4.6c-1.4-2.3-2.5-4.9-3.8-6.2c-3.1-3.3-6.6-4.4-11.1-4.7c-1-0.1-2.1-0.1-3.1-0.1c-10.9,0-21.3,4.3-24.3,15.5
		c-0.7,2.4-1,4.9-1,7.3c0,6.6,2.4,13.2,7.1,18.2c5,5.3,11.4,8.2,17.5,8.2h0c5.6,0,11.1-2.4,15.4-7.7c2.4-2.8,5-7.7,9.2-7.9
		c2,0,3.9,1.4,5.5,4.1c1.2,1.9,1.6,4.1,2,6.1c0.6,3.2,0.9,6.6,0.9,9.9c0,12.7-3.9,25.8-7.7,37.3c10.2,3,20.5,5.4,31,7.1
		c6.6,1.1,13.3,2,20,2v0.3l0.1-0.3c0,0,0.1,0,0.2,0c1.2,0,2.4,0,3.6-0.1c5-0.3,10.7-1.1,13.6-5c0.9-1.2,1.2-2,1.2-2.6
		c0-0.1,0-0.1,0-0.1c0,0,0,0,0,0c0.1-1.3-1.4-2.6-3.6-3.9c-2.2-1.3-4.8-2.5-6.5-4.1c-3.8-3.5-5-7.8-5.4-12.5
		c-0.1-1.1-0.1-2.2-0.1-3.2c0,0,0-0.1,0-0.1c0-11.3,4.6-22.9,17-26.3c2.6-0.7,5.2-1,7.8-1c7.1,0,14.2,2.6,19.6,7.6
		C155.7,152.1,158.9,159,158.9,165.8z"/>
</g>
</svg>
