<svg xmlns="http://www.w3.org/2000/svg" id="delete_data_record_1" width="36" height="36" data-name="delete data record_1" viewBox="0 0 36 36">
    <defs>
        <style>
            .cls-1{fill:none}
        </style>
    </defs>
    <path id="Rectangle_1065" d="M0 0h36v36H0z" class="cls-1" data-name="Rectangle 1065"/>
    <path id="Path_895" d="M24.5 32h-17a.5.5 0 0 1-.5-.5v-15a.5.5 0 0 1 .5-.5H15V7.5a.5.5 0 0 1 .5-.5h3.92v1H16v8.5a.5.5 0 0 1-.5.5H8v14h16V15h1v16.5a.5.5 0 0 1-.5.5z" data-name="Path 895"/>
    <path id="Path_896" d="M15.5 17h-8a.51.51 0 0 1-.5-.3.49.49 0 0 1 .1-.54L11 12.1l4.15-4.92a.5.5 0 0 1 .85.32v9a.5.5 0 0 1-.5.5zm-6.84-1H15V8.87l-3.28 3.9z" data-name="Path 896"/>
    <path id="Path_897" d="M21.52 13a.47.47 0 0 1-.35-.15.49.49 0 0 1 0-.7l5-5a.5.5 0 0 1 .72.7l-5 5a.51.51 0 0 1-.37.15z" data-name="Path 897"/>
    <path id="Path_898" d="M26.5 13a.47.47 0 0 1-.35-.15l-5-5a.495.495 0 1 1 .7-.7l5 5a.48.48 0 0 1 0 .7.47.47 0 0 1-.35.15z" data-name="Path 898"/>
    <path id="Path_899" d="M24 16a6 6 0 1 1 6-6 6 6 0 0 1-6 6zm0-11a5 5 0 1 0 5 5 5 5 0 0 0-5-5z" data-name="Path 899"/>
</svg>
