<?xml version="1.0" encoding="utf-8"?>
<!-- Generator: Adobe Illustrator 24.1.0, SVG Export Plug-In . SVG Version: 6.00 Build 0)  -->
<svg version="1.1" id="Layer_3" xmlns="http://www.w3.org/2000/svg" xmlns:xlink="http://www.w3.org/1999/xlink" x="0px" y="0px"
	 viewBox="0 0 32 11" style="enable-background:new 0 0 32 11;" xml:space="preserve">
<style type="text/css">
	.st0{fill:none;stroke:#000000;stroke-miterlimit:10;}
	.st1{fill:none;stroke:#000000;stroke-miterlimit:10;stroke-dasharray:2,2;}
	.st2{fill:none;stroke:#000000;stroke-miterlimit:10;stroke-dasharray:2.33,2.33;}
</style>
<polyline class="st0" points="9.5,9 9.5,10.5 8,10.5 "/>
<line class="st1" x1="6" y1="10.5" x2="3" y2="10.5"/>
<polyline class="st0" points="2,10.5 0.5,10.5 0.5,9 "/>
<line class="st2" x1="0.5" y1="6.7" x2="0.5" y2="3.2"/>
<polyline class="st0" points="0.5,2 0.5,0.5 2,0.5 "/>
<line class="st1" x1="4" y1="0.5" x2="7" y2="0.5"/>
<polyline class="st0" points="8,0.5 9.5,0.5 9.5,2 "/>
<line class="st2" x1="9.5" y1="4.3" x2="9.5" y2="7.8"/>
<polyline class="st0" points="20.5,9 20.5,10.5 19,10.5 "/>
<line class="st1" x1="17" y1="10.5" x2="14" y2="10.5"/>
<polyline class="st0" points="13,10.5 11.5,10.5 11.5,9 "/>
<line class="st2" x1="11.5" y1="6.7" x2="11.5" y2="3.2"/>
<polyline class="st0" points="11.5,2 11.5,0.5 13,0.5 "/>
<line class="st1" x1="15" y1="0.5" x2="18" y2="0.5"/>
<polyline class="st0" points="19,0.5 20.5,0.5 20.5,2 "/>
<line class="st2" x1="20.5" y1="4.3" x2="20.5" y2="7.8"/>
<polyline class="st0" points="31.5,9 31.5,10.5 30,10.5 "/>
<line class="st1" x1="28" y1="10.5" x2="25" y2="10.5"/>
<polyline class="st0" points="24,10.5 22.5,10.5 22.5,9 "/>
<line class="st2" x1="22.5" y1="6.7" x2="22.5" y2="3.2"/>
<polyline class="st0" points="22.5,2 22.5,0.5 24,0.5 "/>
<line class="st1" x1="26" y1="0.5" x2="29" y2="0.5"/>
<polyline class="st0" points="30,0.5 31.5,0.5 31.5,2 "/>
<line class="st2" x1="31.5" y1="4.3" x2="31.5" y2="7.8"/>
</svg>
