<?xml version="1.0" encoding="utf-8"?>
<!-- Generator: Adobe Illustrator 24.1.0, SVG Export Plug-In . SVG Version: 6.00 Build 0)  -->
<svg version="1.1" id="Layer_1" xmlns="http://www.w3.org/2000/svg" xmlns:xlink="http://www.w3.org/1999/xlink" x="0px" y="0px"
	 viewBox="0 0 452.4 295.8" style="enable-background:new 0 0 452.4 295.8;" xml:space="preserve">
<style type="text/css">
	.st0{fill:#787878;}
	.st1{fill:#8AF3C0;}
	.st2{fill:#B7EBD3;}
	.st3{fill:#47DD9A;}
	.st4{fill:#D7FAE9;}
</style>
<path id="XMLID_751_" class="st0" d="M416.6,0.9L36.5,0C16.7,0,0.6,16,0.5,35.8L0,258.9c0,19.8,16,35.9,35.8,36l380.1,0.9
	c19.8,0,35.9-16,36-35.8l0.5-223.1C452.5,17,436.4,0.9,416.6,0.9z M439.9,260c0,13.2-10.8,23.9-24,23.9L35.8,283
	c-13.2,0-23.9-10.8-23.9-24l0.5-223.1c0-13.2,10.8-23.9,24-23.9l380.1,0.9c13.2,0,23.9,10.8,23.9,24L439.9,260z"/>
<path class="st1" d="M233.4,136.7h98.4c-3.6-52.7-45.7-94.8-98.4-98.4V136.7z"/>
<path class="st2" d="M304.3,215.8c15.9-17.2,26.1-39.7,27.8-64.5h-92.4L304.3,215.8z"/>
<path class="st3" d="M218.8,141V38.3C163.7,42,120.1,87.9,120.1,144c0,26.6,9.9,51,26.1,69.6L218.8,141z"/>
<path class="st4" d="M224,156.5l-67.4,67.4c18.5,16.2,42.9,26.1,69.5,26.1c25.6,0,49-9.1,67.3-24.1L224,156.5z"/>
</svg>
