<?xml version="1.0" encoding="utf-8"?>
<!-- Generator: Adobe Illustrator 19.0.0, SVG Export Plug-In . SVG Version: 6.00 Build 0)  -->
<svg version="1.1" id="Layer_1" xmlns="http://www.w3.org/2000/svg" xmlns:xlink="http://www.w3.org/1999/xlink" x="0px" y="0px"
	 viewBox="0 0 480.3 479.9" style="enable-background:new 0 0 480.3 479.9;" xml:space="preserve">
<style type="text/css">
	.st0{fill:#FFFFFF;}
	.st1{fill:#EFEFEF;}
	.st2{fill:#787878;}
	.st3{fill:#C4C4C3;}
</style>
<rect id="XMLID_14_" x="-603" y="-44" class="st0" width="481.2" height="481.2"/>
<g id="XMLID_28_">
	<path id="XMLID_205_" class="st1" d="M443.1,321.6H38.5c-11,0-20-9-20-20V180.3c0-11,9-20,20-20h404.6c11,0,20,9,20,20v121.2
		C463.1,312.6,454.1,321.6,443.1,321.6z"/>
	<path id="XMLID_224_" class="st2" d="M438.1,147.3h-395c-20.6,0-37.3,16.7-37.3,37.3v111.9c0,20.6,16.7,37.3,37.3,37.3h395
		c20.6,0,37.3-16.7,37.3-37.3V184.7C475.4,164.1,458.7,147.3,438.1,147.3z M463,296.6c0,13.7-11.2,24.9-24.9,24.9h-395
		c-13.7,0-24.9-11.2-24.9-24.9V184.7c0-13.7,11.2-24.9,24.9-24.9h395c13.7,0,24.9,11.2,24.9,24.9V296.6z"/>
	<g id="XMLID_222_">
		<path id="XMLID_223_" class="st3" d="M164.4,247.1H71c-1.1,0-2-0.9-2-2v-8.2c0-1.1,0.9-2,2-2h93.4c1.1,0,2,0.9,2,2v8.2
			C166.4,246.2,165.5,247.1,164.4,247.1z"/>
	</g>
</g>
</svg>
