<?xml version="1.0" encoding="utf-8"?>
<!-- Generator: Adobe Illustrator 19.0.0, SVG Export Plug-In . SVG Version: 6.00 Build 0)  -->
<svg version="1.1" id="Layer_1" xmlns="http://www.w3.org/2000/svg" xmlns:xlink="http://www.w3.org/1999/xlink" x="0px" y="0px"
	 viewBox="-187.1 169.3 478.2 456.1" style="enable-background:new -187.1 169.3 478.2 456.1;" xml:space="preserve">
<style type="text/css">
	.st0{fill:#FFFFFF;}
	.st1{fill:#787878;}
	.st2{fill:#C4C3C3;}
</style>
<rect x="325.2" y="166.3" class="st0" width="478.2" height="456.1"/>
<g>
	<g id="XMLID_355_">
		<path id="XMLID_359_" class="st1" d="M195.3,347h-66.8c-26.6,0-48.3,21.7-48.3,48.3c0,26.6,21.7,48.3,48.3,48.3h66.8
			c26.6,0,48.3-21.7,48.3-48.3C243.6,368.7,222,347,195.3,347z M195.3,436.9h-66.8c-22.8,0-41.5-18.7-41.5-41.5v0
			c0-22.8,18.7-41.5,41.5-41.5h66.8c22.8,0,41.5,18.7,41.5,41.5v0C236.9,418.2,218.2,436.9,195.3,436.9z"/>
		<path id="XMLID_356_" class="st2" d="M128.3,360c-19.5,0-35.3,15.9-35.3,35.3c0,19.5,15.9,35.3,35.3,35.3s35.3-15.9,35.3-35.3
			C163.6,375.9,147.8,360,128.3,360z M128.3,423.9c-15.8,0-28.5-12.8-28.5-28.5c0-15.8,12.8-28.5,28.5-28.5
			c15.8,0,28.5,12.8,28.5,28.5C156.8,411.1,144.1,423.9,128.3,423.9z"/>
	</g>
	<g id="XMLID_308_">
		<path id="XMLID_367_" class="st1" d="M-96.6,394.5c0,8.3-2.1,14.6-6.2,19.1s-10,6.7-17.6,6.7s-13.5-2.2-17.6-6.7
			s-6.2-10.8-6.2-19.1c0-8.3,2.1-14.7,6.2-19.1c4.1-4.4,10-6.6,17.7-6.6s13.6,2.2,17.6,6.6C-98.6,379.8-96.6,386.2-96.6,394.5z
			 M-133,394.5c0,5.6,1.1,9.8,3.2,12.6c2.1,2.8,5.3,4.2,9.5,4.2c8.5,0,12.7-5.6,12.7-16.9c0-11.3-4.2-16.9-12.6-16.9
			c-4.2,0-7.4,1.4-9.5,4.3C-132,384.7-133,388.9-133,394.5z"/>
		<path id="XMLID_372_" class="st1" d="M-75.8,419.5h-10.4v-50h28.6v8.7h-18.2v12.9h17v8.6h-17V419.5z"/>
		<path id="XMLID_374_" class="st1" d="M-37.4,419.5h-10.4v-50h28.6v8.7h-18.2v12.9h17v8.6h-17V419.5z"/>
	</g>
	<g id="XMLID_362_">
		<path id="XMLID_363_" class="st1" d="M249.5,304.1h-395c-20.6,0-37.3,16.7-37.3,37.3v111.9c0,20.6,16.7,37.3,37.3,37.3h395
			c20.6,0,37.3-16.7,37.3-37.3V341.4C286.9,320.8,270.1,304.1,249.5,304.1z M274.4,453.3c0,13.7-11.2,24.9-24.9,24.9h-395
			c-13.7,0-24.9-11.2-24.9-24.9V341.4c0-13.7,11.2-24.9,24.9-24.9h395c13.7,0,24.9,11.2,24.9,24.9V453.3z"/>
	</g>
</g>
</svg>
