<svg id="Layer_3" data-name="Layer 3" xmlns="http://www.w3.org/2000/svg" viewBox="0 0 36 36"><defs><style>.cls-1,.cls-2,.cls-3,.cls-4{fill:none;stroke:#000;stroke-miterlimit:10;stroke-width:1px;}.cls-2{stroke-dasharray:2 2;}.cls-3{stroke-dasharray:2.33 2.33;}.cls-4{stroke-dasharray:2.33 2.33;}</style></defs><title>core_row</title><polyline class="cls-1" points="11.5 21 11.5 22.5 10 22.5"/><line class="cls-2" x1="8" y1="22.5" x2="5" y2="22.5"/><polyline class="cls-1" points="4 22.5 2.5 22.5 2.5 21"/><line class="cls-3" x1="2.5" y1="18.67" x2="2.5" y2="15.17"/><polyline class="cls-1" points="2.5 14 2.5 12.5 4 12.5"/><line class="cls-2" x1="6" y1="12.5" x2="9" y2="12.5"/><polyline class="cls-1" points="10 12.5 11.5 12.5 11.5 14"/><line class="cls-4" x1="11.5" y1="16.33" x2="11.5" y2="19.83"/><polyline class="cls-1" points="22.5 21 22.5 22.5 21 22.5"/><line class="cls-2" x1="19" y1="22.5" x2="16" y2="22.5"/><polyline class="cls-1" points="15 22.5 13.5 22.5 13.5 21"/><line class="cls-3" x1="13.5" y1="18.67" x2="13.5" y2="15.17"/><polyline class="cls-1" points="13.5 14 13.5 12.5 15 12.5"/><line class="cls-2" x1="17" y1="12.5" x2="20" y2="12.5"/><polyline class="cls-1" points="21 12.5 22.5 12.5 22.5 14"/><line class="cls-4" x1="22.5" y1="16.33" x2="22.5" y2="19.83"/><polyline class="cls-1" points="33.5 21 33.5 22.5 32 22.5"/><line class="cls-2" x1="30" y1="22.5" x2="27" y2="22.5"/><polyline class="cls-1" points="26 22.5 24.5 22.5 24.5 21"/><line class="cls-3" x1="24.5" y1="18.67" x2="24.5" y2="15.17"/><polyline class="cls-1" points="24.5 14 24.5 12.5 26 12.5"/><line class="cls-2" x1="28" y1="12.5" x2="31" y2="12.5"/><polyline class="cls-1" points="32 12.5 33.5 12.5 33.5 14"/><line class="cls-4" x1="33.5" y1="16.33" x2="33.5" y2="19.83"/></svg>