<svg xmlns="http://www.w3.org/2000/svg" id="hide_spinner_1" width="36" height="36" data-name="hide spinner_1" viewBox="0 0 36 36">
    <defs>
        <style>
            .cls-1{fill:#b9bcc1}.cls-2{fill:none}
        </style>
    </defs>
    <path id="Rectangle_1031" d="M0 0h1v4H0z" class="cls-1" data-name="Rectangle 1031" transform="translate(18 7)"/>
    <path id="Rectangle_1032" d="M0 0h1v4H0z" class="cls-1" data-name="Rectangle 1032" transform="translate(18 26)"/>
    <path id="Rectangle_1033" d="M0 0h1v4H0z" class="cls-1" data-name="Rectangle 1033" transform="rotate(-45 17.347 -6.737)"/>
    <path id="Rectangle_1034" d="M0 0h1v4H0z" class="cls-1" data-name="Rectangle 1034" transform="rotate(-45 40.882 -16.473)"/>
    <path id="Rectangle_1035" d="M0 0h4v1H0z" class="cls-1" data-name="Rectangle 1035" transform="translate(7 18)"/>
    <path id="Rectangle_1036" d="M0 0h4v1H0z" class="cls-1" data-name="Rectangle 1036" transform="translate(26 18)"/>
    <path id="Rectangle_1037" d="M0 0h4v1H0z" class="cls-1" data-name="Rectangle 1037" transform="rotate(-45 36.543 1.222)"/>
    <path id="Rectangle_1038" d="M0 0h4v1H0z" class="cls-1" data-name="Rectangle 1038" transform="rotate(-45 26.807 -22.313)"/>
    <path id="Path_859" d="M7 30.5a.47.47 0 0 1-.35-.15.48.48 0 0 1 0-.7l23.5-23.5a.495.495 0 1 1 .7.7l-23.5 23.5a.47.47 0 0 1-.35.15z" data-name="Path 859"/>
    <path id="Rectangle_1039" d="M0 0h36v36H0z" class="cls-2" data-name="Rectangle 1039"/>
</svg>
