<svg xmlns="http://www.w3.org/2000/svg" id="set_page_variable" width="36" height="36" data-name="set page variable" viewBox="0 0 36 36">
    <defs>
        <style>
            .cls-1{fill:none}
        </style>
    </defs>
    <path id="Rectangle_1044" d="M0 0h36v36H0z" class="cls-1" data-name="Rectangle 1044"/>
    <path id="Path_871" d="M26.5 31h-17a.5.5 0 0 1-.5-.5V6.52A.5.5 0 0 1 9.5 6h17a.5.5 0 0 1 .5.5v23.96a.5.5 0 0 1-.5.54zM10 30h16V7H10z" data-name="Path 871"/>
    <path id="Path_872" d="M18.5 22a.54.54 0 0 1-.22-.05.51.51 0 0 1-.23-.67l3-6a.5.5 0 0 1 .9.44l-3 6a.5.5 0 0 1-.45.28z" data-name="Path 872"/>
    <path id="Path_873" d="M21.5 22a.5.5 0 0 1-.45-.28l-3-6a.5.5 0 1 1 .9-.44l3 6a.51.51 0 0 1-.23.67.54.54 0 0 1-.22.05z" data-name="Path 873"/>
    <path id="Rectangle_1045" d="M0 0h1v7.81H0z" data-name="Rectangle 1045" transform="rotate(-89.92 12.515 6.494)"/>
    <path id="Path_874" d="M11.5 22a.52.52 0 0 1-.29-.09.51.51 0 0 1-.12-.7l1.91-2.7-2-2.71a.5.5 0 0 1 .12-.7.49.49 0 0 1 .69.12l2.37 3.29-2.3 3.28a.5.5 0 0 1-.38.21z" data-name="Path 874"/>
    <path id="Path_875" d="M16.5 23a.5.5 0 0 1-.45-.28A10.8 10.8 0 0 1 15 18.5a10.8 10.8 0 0 1 1.05-4.22.5.5 0 0 1 .9.44A9.93 9.93 0 0 0 16 18.5a9.93 9.93 0 0 0 1 3.78.51.51 0 0 1-.23.67.54.54 0 0 1-.27.05z" data-name="Path 875"/>
    <path id="Path_876" d="M23.5 23a.54.54 0 0 1-.22-.05.51.51 0 0 1-.23-.67A9.93 9.93 0 0 0 24 18.5a9.93 9.93 0 0 0-.95-3.78.5.5 0 0 1 .9-.44A10.8 10.8 0 0 1 25 18.5a10.8 10.8 0 0 1-1 4.22.5.5 0 0 1-.5.28z" data-name="Path 876"/>
</svg>
