<svg xmlns="http://www.w3.org/2000/svg" id="set_app_variable" width="36" height="36" data-name="set app variable" viewBox="0 0 36 36">
    <defs>
        <style>
            .cls-1{fill:#b9bcc1}.cls-2{fill:none}
        </style>
    </defs>
    <path id="Rectangle_1048" d="M0 0h17v1H0z" class="cls-1" data-name="Rectangle 1048" transform="translate(9.5 10)"/>
    <path id="Rectangle_1049" d="M0 0h17v1H0z" class="cls-1" data-name="Rectangle 1049" transform="translate(10 26)"/>
    <path id="Rectangle_1050" d="M0 0h36v36H0z" class="cls-2" data-name="Rectangle 1050"/>
    <path id="Path_884" d="M24.5 31h-13A2.5 2.5 0 0 1 9 28.46V8.52A2.5 2.5 0 0 1 11.5 6h13A2.5 2.5 0 0 1 27 8.52v19.94A2.5 2.5 0 0 1 24.5 31zm-13-24A1.5 1.5 0 0 0 10 8.52v19.94A1.5 1.5 0 0 0 11.5 30h13a1.5 1.5 0 0 0 1.5-1.5V8.52A1.5 1.5 0 0 0 24.5 7z" data-name="Path 884"/>
    <path id="Path_885" d="M18.5 22a.54.54 0 0 1-.22-.05.51.51 0 0 1-.23-.67l3-6a.5.5 0 0 1 .9.44l-3 6a.5.5 0 0 1-.45.28z" data-name="Path 885"/>
    <path id="Path_886" d="M21.5 22a.5.5 0 0 1-.45-.28l-3-6a.5.5 0 1 1 .9-.44l3 6a.51.51 0 0 1-.23.67.54.54 0 0 1-.22.05z" data-name="Path 886"/>
    <path id="Rectangle_1051" d="M0 0h1v7.81H0z" data-name="Rectangle 1051" transform="rotate(-89.92 12.515 6.494)"/>
    <path id="Path_887" d="M11.5 22a.52.52 0 0 1-.29-.09.51.51 0 0 1-.12-.7l1.91-2.7-2-2.71a.5.5 0 0 1 .12-.7.49.49 0 0 1 .69.12l2.37 3.29-2.3 3.28a.5.5 0 0 1-.38.21z" data-name="Path 887"/>
    <path id="Path_888" d="M16.5 23a.5.5 0 0 1-.45-.28A10.8 10.8 0 0 1 15 18.5a10.8 10.8 0 0 1 1.05-4.22.5.5 0 0 1 .9.44A9.93 9.93 0 0 0 16 18.5a9.93 9.93 0 0 0 1 3.78.51.51 0 0 1-.23.67.54.54 0 0 1-.27.05z" data-name="Path 888"/>
    <path id="Path_889" d="M23.5 23a.54.54 0 0 1-.22-.05.51.51 0 0 1-.23-.67A9.93 9.93 0 0 0 24 18.5a9.93 9.93 0 0 0-.95-3.78.5.5 0 0 1 .9-.44A10.8 10.8 0 0 1 25 18.5a10.8 10.8 0 0 1-1 4.22.5.5 0 0 1-.5.28z" data-name="Path 889"/>
</svg>
