<svg xmlns="http://www.w3.org/2000/svg" id="alert_2" width="36" height="36" viewBox="0 0 36 36">
    <defs>
        <style>
            .cls-1{fill:none}.cls-2{fill:#b9bcc1}
        </style>
    </defs>
    <path id="Rectangle_1052" d="M0 0h36v36H0z" class="cls-1" data-name="Rectangle 1052"/>
    <path id="Rectangle_1053" d="M0 0h5v1H0z" data-name="Rectangle 1053" transform="translate(8 15)"/>
    <path id="Rectangle_1054" d="M0 0h13v1H0z" data-name="Rectangle 1054" transform="translate(15 15)"/>
    <path id="Path_890" d="M28.9 29H6.5A2.5 2.5 0 0 1 4 26.5V19h28v6.9a3.1 3.1 0 0 1-3.1 3.1zM5 20v6.5A1.5 1.5 0 0 0 6.5 28h22.4a2.1 2.1 0 0 0 2.1-2.1V20z" class="cls-2" data-name="Path 890"/>
    <path id="Path_891" d="M32 20H4V9.5A2.5 2.5 0 0 1 6.5 7h23A2.5 2.5 0 0 1 32 9.5zM5 19h26V9.5A1.5 1.5 0 0 0 29.5 8h-23A1.5 1.5 0 0 0 5 9.5z" class="cls-2" data-name="Path 891"/>
    <path id="Path_892" d="M18 27a.48.48 0 0 1-.26-.07.5.5 0 0 1-.17-.69l3-4.93a.5.5 0 0 1 .86.52l-3 4.93A.5.5 0 0 1 18 27z" data-name="Path 892"/>
    <path id="Path_893" d="M18 27a.48.48 0 0 1-.38-.18l-2.5-3a.5.5 0 1 1 .76-.64l2.5 3A.5.5 0 0 1 18 27z" data-name="Path 893"/>
    <path id="Rectangle_1055" d="M0 0h14.5v3H0z" data-name="Rectangle 1055" transform="translate(8 10)"/>
</svg>
